# xmcd CD database file
#
# Track frame offsets:
#	150
#	12839
#	24973
#	37463
#	50081
#	62816
#	75661
#	88118
#	101682
#	113125
#	125655
#	140830
#	153247
#	166514
#	179694
#	192232
#
# Disc length: 2740 seconds
#
# Revision: 2
# Processed by: cddbd v1.5.2PL0 Copyright (c) Steve Scherf et al.
# Submitted via: CDex 1.51
#
DISCID=dc0ab210
DTITLE=John Lee Williamson - Shake The Boogie
DYEAR=1937
DGENRE=Blues
TTITLE0=Black Gal Blues  [1937]
TTITLE1=Bad Luck Blues  [1939]
TTITLE2=Good Gal Blues  [1939]
TTITLE3=Good Gravy  [1939]
TTITLE4=Train Fare Blues  [1940]
TTITLE5=Welfare Store Blues  [1940]
TTITLE6=My Black Name Blues  [1941]
TTITLE7=Skinny Woman  [1937]
TTITLE8=Black Panter Blues  [1941]
TTITLE9=I Have Got To Go  [1941]
TTITLE10=Love Me Baby  [1942]
TTITLE11=Check Up On My Baby Blues  [1944]
TTITLE12=Stop Breaking Down  [1945]
TTITLE13=Hoodoo Hoodoo  [1946]
TTITLE14=Shake The Boogie  [1946]
TTITLE15=Better Cut That Out  [1947]
EXTD=YEAR: 1937
EXTT0=
EXTT1=
EXTT2=
EXTT3=
EXTT4=
EXTT5=
EXTT6=
EXTT7=
EXTT8=
EXTT9=
EXTT10=
EXTT11=
EXTT12=
EXTT13=
EXTT14=
EXTT15=
PLAYORDER=
